# Blender v2.79 (sub 0) OBJ File: 'outer_ring_gaffa.blend'
# www.blender.org
mtllib outer_ring_gaffa.mtl
o Cylinder
v 0.000000 -0.253653 -1.000000
v 0.000000 0.253653 -1.000000
v 0.195090 -0.253653 -0.980785
v 0.195090 0.253653 -0.980785
v 0.382683 -0.253653 -0.923880
v 0.382683 0.253653 -0.923880
v 0.555570 -0.253653 -0.831470
v 0.555570 0.253653 -0.831470
v 0.707107 -0.253653 -0.707107
v 0.707107 0.253653 -0.707107
v 0.831470 -0.253653 -0.555570
v 0.831470 0.253653 -0.555570
v 0.923880 -0.253653 -0.382683
v 0.923880 0.253653 -0.382683
v 0.980785 -0.253653 -0.195090
v 0.980785 0.253653 -0.195090
v 1.000000 -0.253653 -0.000000
v 1.000000 0.253653 -0.000000
v 0.980785 -0.253653 0.195090
v 0.980785 0.253653 0.195090
v 0.923880 -0.253653 0.382683
v 0.923880 0.253653 0.382683
v 0.831470 -0.253653 0.555570
v 0.831470 0.253653 0.555570
v 0.707107 -0.253653 0.707107
v 0.707107 0.253653 0.707107
v 0.555570 -0.253653 0.831470
v 0.555570 0.253653 0.831470
v 0.382683 -0.253653 0.923880
v 0.382683 0.253653 0.923880
v 0.195090 -0.253653 0.980785
v 0.195090 0.253653 0.980785
v -0.000000 -0.253653 1.000000
v -0.000000 0.253653 1.000000
v -0.195091 -0.253653 0.980785
v -0.195091 0.253653 0.980785
v -0.382684 -0.253653 0.923879
v -0.382684 0.253653 0.923879
v -0.555571 -0.253653 0.831469
v -0.555571 0.253653 0.831469
v -0.707107 -0.253653 0.707106
v -0.707107 0.253653 0.707106
v -0.831470 -0.253653 0.555570
v -0.831470 0.253653 0.555570
v -0.923880 -0.253653 0.382683
v -0.923880 0.253653 0.382683
v -0.980785 -0.253653 0.195089
v -0.980785 0.253653 0.195089
v -1.000000 -0.253653 -0.000001
v -1.000000 0.253653 -0.000001
v -0.980785 -0.253653 -0.195091
v -0.980785 0.253653 -0.195091
v -0.923879 -0.253653 -0.382684
v -0.923879 0.253653 -0.382684
v -0.831469 -0.253653 -0.555571
v -0.831469 0.253653 -0.555571
v -0.707106 -0.253653 -0.707108
v -0.707106 0.253653 -0.707108
v -0.555569 -0.253653 -0.831470
v -0.555569 0.253653 -0.831470
v -0.382682 -0.253653 -0.923880
v -0.382682 0.253653 -0.923880
v -0.195089 -0.253653 -0.980786
v -0.195089 0.253653 -0.980786
v 0.367961 0.253654 0.245864
v 0.367961 -0.253653 0.245864
v 0.000000 0.253653 -0.442543
v 0.000000 -0.253653 -0.442543
v -0.086335 0.253653 -0.434040
v -0.086335 -0.253653 -0.434040
v -0.169353 0.253653 -0.408857
v -0.169353 -0.253653 -0.408857
v -0.408857 0.253654 0.169354
v -0.408857 -0.253653 0.169354
v -0.367961 0.253654 0.245863
v -0.367961 -0.253653 0.245863
v -0.434040 0.253654 0.086335
v -0.434040 -0.253653 0.086335
v -0.312925 0.253654 0.312925
v -0.312925 -0.253653 0.312925
v -0.086336 0.253654 0.434040
v -0.086336 -0.253653 0.434040
v -0.000000 0.253654 0.442543
v -0.000000 -0.253653 0.442543
v -0.169354 0.253654 0.408856
v -0.169354 -0.253653 0.408856
v 0.434040 0.253653 -0.086336
v 0.434040 -0.253653 -0.086336
v 0.245864 0.253653 -0.367961
v 0.245864 -0.253653 -0.367961
v 0.442543 0.253653 -0.000000
v 0.442543 -0.253653 -0.000000
v 0.408856 0.253653 -0.169354
v 0.408856 -0.253653 -0.169354
v 0.086336 0.253654 0.434040
v 0.086336 -0.253653 0.434040
v -0.312925 0.253653 -0.312926
v -0.312925 -0.253653 -0.312926
v -0.245863 0.253653 -0.367961
v -0.245863 -0.253653 -0.367961
v -0.367961 0.253653 -0.245864
v -0.367961 -0.253653 -0.245864
v 0.434040 0.253653 0.086336
v 0.434040 -0.253653 0.086336
v 0.245864 0.253654 0.367961
v 0.245864 -0.253653 0.367961
v 0.312925 0.253654 0.312925
v 0.312925 -0.253653 0.312925
v 0.408856 0.253653 0.169354
v 0.408856 -0.253653 0.169354
v -0.442543 0.253654 -0.000000
v -0.442543 -0.253653 -0.000000
v -0.245864 0.253654 0.367961
v -0.245864 -0.253653 0.367961
v -0.434040 0.253654 -0.086336
v -0.434040 -0.253653 -0.086336
v 0.312925 0.253653 -0.312925
v 0.312925 -0.253653 -0.312925
v 0.169354 0.253654 0.408857
v 0.169354 -0.253653 0.408857
v 0.367961 0.253653 -0.245864
v 0.367961 -0.253653 -0.245864
v -0.408856 0.253653 -0.169354
v -0.408856 -0.253653 -0.169354
v 0.169354 0.253653 -0.408856
v 0.169354 -0.253653 -0.408856
v 0.086336 0.253653 -0.434040
v 0.086336 -0.253653 -0.434040
v -0.574269 0.253653 0.851138
v -0.574269 -0.253653 0.851138
v -0.718519 -0.253653 0.722890
v -0.718519 0.253653 0.722890
v -0.842882 -0.253653 0.571353
v -0.842882 0.253653 0.571353
v -0.414557 0.253653 0.943381
v -0.414557 -0.253653 0.943381
v -0.425126 0.253653 0.961139
v -0.425126 -0.253653 0.961139
v -0.205252 0.253653 1.037527
v -0.205252 -0.253653 1.037527
v -0.201516 0.253653 1.071086
v -0.201516 -0.253653 1.071086
v 0.033848 0.253653 1.056447
v 0.033848 -0.253653 1.056447
v 0.043636 0.253653 1.089207
v 0.043636 -0.253653 1.089207
vn 0.0980 0.0000 -0.9952
vn 0.2903 0.0000 -0.9569
vn 0.4714 0.0000 -0.8819
vn 0.6344 0.0000 -0.7730
vn 0.7730 0.0000 -0.6344
vn 0.8819 0.0000 -0.4714
vn 0.9569 0.0000 -0.2903
vn 0.9952 0.0000 -0.0980
vn 0.9952 0.0000 0.0980
vn 0.9569 0.0000 0.2903
vn 0.8819 0.0000 0.4714
vn 0.7730 0.0000 0.6344
vn 0.6344 0.0000 0.7730
vn 0.4714 0.0000 0.8819
vn 0.2903 0.0000 0.9569
vn 0.0980 0.0000 0.9952
vn -0.0980 0.0000 0.9952
vn -0.2903 0.0000 0.9569
vn -0.4714 0.0000 0.8819
vn 0.0000 -1.0000 0.0000
vn 0.0000 1.0000 0.0000
vn -0.9569 0.0000 0.2903
vn -0.9952 0.0000 0.0980
vn -0.9952 0.0000 -0.0980
vn -0.9569 0.0000 -0.2903
vn -0.8819 0.0000 -0.4714
vn -0.7730 0.0000 -0.6344
vn -0.6344 0.0000 -0.7730
vn -0.4714 0.0000 -0.8819
vn -0.2903 0.0000 -0.9569
vn -0.0980 0.0000 -0.9952
vn -0.7730 0.0000 0.6344
vn -0.6344 0.0000 0.7730
vn -0.8819 0.0000 0.4714
vn -0.6644 0.0000 0.7473
vn -0.5936 0.0000 0.8048
vn -0.9189 0.0000 0.3945
vn 0.4102 0.0000 -0.9120
vn 0.6216 0.0000 -0.7833
vn -0.4412 0.0000 0.8974
vn 0.9581 0.0000 -0.2863
vn -0.0737 0.0000 0.9973
vn 0.0789 0.0000 -0.9969
usemtl None
s off
f 1//1 2//1 4//1 3//1
f 3//2 4//2 6//2 5//2
f 5//3 6//3 8//3 7//3
f 7//4 8//4 10//4 9//4
f 9//5 10//5 12//5 11//5
f 11//6 12//6 14//6 13//6
f 13//7 14//7 16//7 15//7
f 15//8 16//8 18//8 17//8
f 17//9 18//9 20//9 19//9
f 19//10 20//10 22//10 21//10
f 21//11 22//11 24//11 23//11
f 23//12 24//12 26//12 25//12
f 25//13 26//13 28//13 27//13
f 27//14 28//14 30//14 29//14
f 29//15 30//15 32//15 31//15
f 31//16 32//16 34//16 33//16
f 33//17 34//17 36//17 35//17
f 35//18 36//18 38//18 37//18
f 37//19 38//19 40//19 39//19
f 41//20 39//20 130//20 131//20
f 42//21 44//21 134//21 132//21
f 44//21 46//21 134//21
f 45//22 46//22 48//22 47//22
f 47//23 48//23 50//23 49//23
f 49//24 50//24 52//24 51//24
f 51//25 52//25 54//25 53//25
f 53//26 54//26 56//26 55//26
f 55//27 56//27 58//27 57//27
f 57//28 58//28 60//28 59//28
f 59//29 60//29 62//29 61//29
f 4//21 2//21 64//21 62//21 60//21 58//21 56//21 54//21 52//21 50//21 111//21 115//21 123//21 101//21 97//21 99//21 71//21 69//21 67//21 127//21 125//21 89//21 117//21 121//21 93//21 87//21 91//21 18//21 16//21 14//21 12//21 10//21 8//21 6//21
f 61//30 62//30 64//30 63//30
f 63//31 64//31 2//31 1//31
f 1//20 3//20 5//20 7//20 9//20 11//20 13//20 15//20 17//20 92//20 88//20 94//20 122//20 118//20 90//20 126//20 128//20 68//20 70//20 72//20 100//20 98//20 102//20 124//20 116//20 112//20 49//20 51//20 53//20 55//20 57//20 59//20 61//20 63//20
f 104//24 103//24 91//24 92//24
f 108//27 107//27 65//27 66//27
f 66//26 65//26 109//26 110//26
f 116//9 115//9 111//9 112//9
f 88//22 87//22 93//22 94//22
f 92//23 91//23 87//23 88//23
f 122//32 121//32 117//32 118//32
f 68//16 67//16 69//16 70//16
f 82//1 81//1 83//1 84//1
f 102//11 101//11 123//11 124//11
f 84//31 83//31 95//31 96//31
f 70//15 69//15 71//15 72//15
f 118//33 117//33 89//33 90//33
f 114//3 113//3 85//3 86//3
f 18//21 91//21 103//21 109//21 65//21 107//21 105//21 119//21 95//21 83//21 81//21 85//21 113//21 79//21 75//21 73//21 77//21 111//21 50//21 48//21 46//21 44//21 42//21 40//21 38//21 36//21 34//21 32//21 30//21 28//21 26//21 24//21 22//21 20//21
f 90//19 89//19 125//19 126//19
f 106//28 105//28 107//28 108//28
f 100//13 99//13 97//13 98//13
f 124//10 123//10 115//10 116//10
f 120//29 119//29 105//29 106//29
f 80//4 79//4 113//4 114//4
f 74//6 73//6 75//6 76//6
f 128//17 127//17 67//17 68//17
f 94//34 93//34 121//34 122//34
f 112//8 111//8 77//8 78//8
f 110//25 109//25 103//25 104//25
f 86//2 85//2 81//2 82//2
f 72//14 71//14 99//14 100//14
f 126//18 125//18 127//18 128//18
f 96//30 95//30 119//30 120//30
f 78//7 77//7 73//7 74//7
f 98//12 97//12 101//12 102//12
f 49//20 112//20 78//20 74//20 76//20 80//20 114//20 86//20 82//20 84//20 96//20 120//20 106//20 108//20 66//20 110//20 104//20 92//20 17//20 19//20 21//20 23//20 25//20 27//20 29//20 31//20 33//20 35//20 37//20 39//20 41//20 43//20 45//20 47//20
f 76//5 75//5 79//5 80//5
f 130//35 129//35 132//35 131//35
f 131//32 132//32 134//32 133//32
f 45//20 43//20 133//20
f 43//20 41//20 131//20 133//20
f 40//21 42//21 132//21 129//21
f 129//36 130//36 138//36 137//36
f 134//37 46//37 45//37 133//37
f 136//38 135//38 139//38 140//38
f 40//21 129//21 137//21 135//21
f 130//20 39//20 136//20 138//20
f 39//39 40//39 135//39 136//39
f 139//21 141//21 145//21 143//21
f 135//21 137//21 141//21 139//21
f 137//40 138//40 142//40 141//40
f 138//20 136//20 140//20 142//20
f 144//41 143//41 145//41 146//41
f 141//42 142//42 146//42 145//42
f 142//20 140//20 144//20 146//20
f 140//43 139//43 143//43 144//43
