# Blender v2.79 (sub 0) OBJ File: 'Door.blend'
# www.blender.org
mtllib Door.mtl
o Cube
v 1.425669 -2.677402 0.227193
v 1.425669 2.682114 0.227193
v 1.425669 -2.677402 -0.227193
v 1.425669 2.682114 -0.227193
v 1.762578 -2.677402 0.227193
v 1.762578 2.682114 0.227193
v 1.762578 -2.677402 -0.227193
v 1.762578 2.682114 -0.227193
v 1.425669 2.982114 0.227193
v 1.425669 2.982114 -0.227193
v 1.762578 2.982114 -0.227193
v 1.762578 2.982114 0.227193
v -1.429291 2.682114 0.227193
v -1.429291 2.682114 -0.227193
v -1.429291 2.982114 0.227193
v -1.429291 2.982114 -0.227193
v -1.729291 2.682114 0.227193
v -1.729291 2.682114 -0.227193
v -1.729291 2.982114 0.227193
v -1.729291 2.982114 -0.227193
v -1.429291 -2.676956 0.227193
v -1.429291 -2.676956 -0.227193
v -1.729291 -2.676956 0.227193
v -1.729291 -2.676956 -0.227193
v 1.425669 0.000000 0.227193
v 1.762578 0.000000 0.227193
v 1.594123 -2.677402 0.189099
v 1.594123 2.682114 0.189099
v 1.594123 2.982114 0.227193
v 1.762578 2.832114 0.227193
v 1.425669 2.832114 0.189099
v -1.429291 2.832114 0.189099
v -0.001811 2.982114 0.227193
v -0.001811 2.682114 0.227193
v -1.729291 2.832114 0.227193
v -1.579291 2.982114 0.227193
v -1.579291 2.682114 0.189099
v -1.579291 -2.676956 0.189099
v -1.729291 0.002123 0.227193
v -1.429291 0.002123 0.227193
v -1.579291 0.002123 0.189099
v -1.579291 2.832114 0.189099
v -0.001811 2.832114 0.189099
v 1.594123 2.832114 0.189099
v 1.594123 0.000000 0.189099
v -1.428511 -2.677236 -0.105487
v -1.428511 -2.677236 0.105488
v -1.428511 2.677236 -0.105487
v -1.428509 2.677236 0.105488
v 0.000000 -2.677236 -0.105487
v 0.000000 -2.677236 0.105488
v 0.000000 2.677236 -0.105487
v 0.000000 2.677236 0.105488
v -1.071328 0.009290 0.105488
v -1.085328 0.033670 0.105488
v -1.078966 0.026454 0.105488
v -1.074239 0.018222 0.105488
v -1.157670 0.033670 0.105488
v -1.171669 0.009290 0.105488
v -1.164032 0.026454 0.105488
v -1.168759 0.018222 0.105488
v -1.101923 0.043992 0.105488
v -1.093079 0.039592 0.105488
v -1.111519 0.046702 0.105488
v -1.141074 0.043992 0.105488
v -1.121499 0.047617 0.105488
v -1.131478 0.046702 0.105488
v -1.149918 0.039592 0.105488
v 1.425669 2.677236 -0.105487
v 1.425669 2.677236 0.105488
v 1.425669 0.718392 0.105488
v 1.425669 -2.677236 0.105488
v 1.425669 -2.677236 -0.105487
vn -1.0000 0.0000 0.0000
vn 0.0000 0.0000 -1.0000
vn 1.0000 0.0000 0.0000
vn 0.2206 0.0000 0.9754
vn -0.0004 -1.0000 0.0000
vn 0.0000 1.0000 0.0000
vn 0.0000 -1.0000 0.0000
vn 0.0000 -0.2461 0.9692
vn 1.0000 0.0000 -0.0064
vn 0.2461 0.0000 0.9692
vn -0.0007 -1.0000 -0.0000
vn -0.2461 0.0000 0.9692
vn 0.0000 0.2461 0.9692
vn -0.2206 0.0000 0.9754
vn 0.0000 -0.0000 1.0000
vn 0.0000 0.9992 0.0400
vn 1.0000 -0.0000 0.0064
usemtl Material
s off
f 1//1 25//1 71//1 72//1
f 3//2 4//2 8//2 7//2
f 7//3 8//3 6//3 26//3 5//3
f 45//4 28//4 2//4 25//4
f 72//5 73//5 3//5 7//5 5//5 27//5 1//5
f 6//3 8//3 11//3 12//3 30//3
f 11//6 10//6 9//6 29//6 12//6
f 9//6 10//6 16//6 15//6 33//6
f 8//2 4//2 10//2 11//2
f 16//2 14//2 18//2 20//2
f 10//2 4//2 14//2 16//2
f 4//7 2//7 34//7 13//7 14//7
f 43//8 33//8 15//8 32//8
f 18//1 17//1 35//1 19//1 20//1
f 15//6 16//6 20//6 19//6 36//6
f 18//2 14//2 22//2 24//2
f 46//9 22//9 14//9 48//9
f 17//1 18//1 24//1 23//1 39//1
f 41//10 39//10 23//10 38//10
f 22//11 46//11 47//11 21//11 38//11 23//11 24//11
f 40//12 41//12 38//12 21//12
f 13//12 37//12 41//12 40//12
f 37//10 17//10 39//10 41//10
f 36//8 19//8 42//8
f 34//13 43//13 32//13 13//13
f 2//13 31//13 43//13 34//13
f 31//8 9//8 33//8 43//8
f 27//4 45//4 25//4 1//4
f 5//14 26//14 45//14 27//14
f 26//14 6//14 28//14 45//14
f 35//10 42//10 19//10
f 15//8 36//8 42//8
f 15//8 42//8 32//8
f 32//13 42//13 13//13
f 37//12 13//12 42//12
f 37//10 42//10 17//10
f 35//10 17//10 42//10
f 31//8 44//8 9//8
f 29//8 9//8 44//8
f 29//8 44//8 12//8
f 30//14 12//14 44//14
f 6//14 30//14 44//14
f 28//14 6//14 44//14
f 2//4 28//4 44//4
f 31//13 2//13 44//13
f 46//1 47//1 49//1 48//1
f 48//2 52//2 50//2 46//2
f 46//7 50//7 51//7 47//7
f 53//15 49//15 47//15 51//15
f 70//6 69//6 52//6 53//6
f 73//7 72//7 51//7 50//7
f 72//15 71//15 70//15 53//15 51//15
f 3//1 73//1 69//1 70//1 71//1 25//1 2//1 4//1
f 69//2 73//2 50//2 52//2
f 69//16 4//16 14//16 48//16 52//16
f 40//17 21//17 47//17 49//17 13//17
