# Blender v2.79 (sub 0) OBJ File: 'Workdesk_Drawer.blend'
# www.blender.org
mtllib Workdesk_Drawer.mtl
o Cube.001_Cube.002
v -1.953751 -0.025025 1.000557
v -1.929841 0.610225 0.973452
v -1.953751 -0.025025 -0.202153
v -1.929841 0.610225 -0.175048
v -0.892820 -0.025025 1.000557
v -0.916730 0.610225 0.973452
v -0.892820 -0.025025 -0.202153
v -0.916730 0.610225 -0.175048
v -1.953751 0.610225 1.000557
v -1.953751 0.610225 -0.202153
v -0.892820 0.610225 -0.202153
v -0.892820 0.610225 1.000557
v -1.929841 0.004079 0.973452
v -1.929841 0.004079 -0.175048
v -0.916730 0.004079 -0.175048
v -0.916730 0.004079 0.973452
vn -1.0000 0.0000 0.0000
vn 0.0000 0.0000 -1.0000
vn 1.0000 0.0000 0.0000
vn 0.0000 0.0000 1.0000
vn 0.0000 -1.0000 0.0000
vn 0.0000 1.0000 0.0000
usemtl None
s off
f 1//1 9//1 10//1 3//1
f 3//2 10//2 11//2 7//2
f 7//3 11//3 12//3 5//3
f 5//4 12//4 9//4 1//4
f 3//5 7//5 5//5 1//5
f 2//2 6//2 16//2 13//2
f 2//6 4//6 10//6 9//6
f 4//6 8//6 11//6 10//6
f 8//6 6//6 12//6 11//6
f 6//6 2//6 9//6 12//6
f 15//6 14//6 13//6 16//6
f 8//4 4//4 14//4 15//4
f 6//1 8//1 15//1 16//1
f 4//3 2//3 13//3 14//3
